# xmcd
#
# Track frame offsets:
#	150
#	19756
#	48123
#	66375
#	89838
#	114340
#	127300
#	148839
#
# Disc length: 2399 seconds
#
# Revision: 8
# Processed by: cddbd v1.5.2PL0 Copyright (c) Steve Scherf et al.
# Submitted via: audiograbber 1.83.01
#
DISCID=78095d08
DTITLE=Foghat - The Complete Bearsville Albums Collection [CD 03) - Energized [
DTITLE=remastered 2016]
DYEAR=1974
DGENRE=Rock
TTITLE0=Honey Hush
TTITLE1=Step Outside
TTITLE2=Golden Arrow
TTITLE3=Home In My Hand
TTITLE4=Wild Cherry
TTITLE5=That'll Be The Day
TTITLE6=Fly By Night
TTITLE7=Nothin' I Won't Do
EXTD=
EXTT0=
EXTT1=
EXTT2=
EXTT3=
EXTT4=
EXTT5=
EXTT6=
EXTT7=
PLAYORDER=
